<?xml version="1.0" encoding="utf-8" standalone="no"?>
<!DOCTYPE svg PUBLIC "-//W3C//DTD SVG 1.1//EN"
  "http://www.w3.org/Graphics/SVG/1.1/DTD/svg11.dtd">
<svg xmlns:xlink="http://www.w3.org/1999/xlink" width="625.589244pt" height="466.634219pt" viewBox="0 0 625.589244 466.634219" xmlns="http://www.w3.org/2000/svg" version="1.1">
 <metadata>
  <rdf:RDF xmlns:dc="http://purl.org/dc/elements/1.1/" xmlns:cc="http://creativecommons.org/ns#" xmlns:rdf="http://www.w3.org/1999/02/22-rdf-syntax-ns#">
   <cc:Work>
    <dc:type rdf:resource="http://purl.org/dc/dcmitype/StillImage"/>
    <dc:date>2026-06-04T10:58:55.601324</dc:date>
    <dc:format>image/svg+xml</dc:format>
    <dc:creator>
     <cc:Agent>
      <dc:title>Matplotlib v3.10.8, https://matplotlib.org/</dc:title>
     </cc:Agent>
    </dc:creator>
   </cc:Work>
  </rdf:RDF>
 </metadata>
 <defs>
  <style type="text/css">*{stroke-linejoin: round; stroke-linecap: butt}</style>
 </defs>
 <g id="figure_1">
  <g id="patch_1">
   <path d="M 0 466.634219 
L 625.589244 466.634219 
L 625.589244 0 
L 0 0 
z
" style="fill: #ffffff"/>
  </g>
  <g id="axes_1">
   <g id="patch_2">
    <path d="M 50.14375 429.077969 
L 612.071192 429.077969 
L 612.071192 23.077969 
L 50.14375 23.077969 
z
" style="fill: #ffffff"/>
   </g>
   <g id="patch_3">
    <path d="M 50.14375 165.721576 
L 283.735681 165.721576 
L 283.735681 23.077969 
L 50.14375 23.077969 
z
" clip-path="url(#p2f8ccef5b5)" style="fill: #ededed"/>
   </g>
   <g id="patch_4">
    <path d="M 283.735681 165.721576 
L 612.071192 165.721576 
L 612.071192 23.077969 
L 283.735681 23.077969 
z
" clip-path="url(#p2f8ccef5b5)" style="fill: #f7f7f7"/>
   </g>
   <g id="patch_5">
    <path d="M 50.14375 429.077969 
L 283.735681 429.077969 
L 283.735681 165.721576 
L 50.14375 165.721576 
z
" clip-path="url(#p2f8ccef5b5)" style="fill: #fbfbfb"/>
   </g>
   <g id="patch_6">
    <path d="M 283.735681 429.077969 
L 612.071192 429.077969 
L 612.071192 165.721576 
L 283.735681 165.721576 
z
" clip-path="url(#p2f8ccef5b5)" style="fill: #f0f0f0"/>
   </g>
   <g id="line2d_1">
    <path d="M 283.735681 429.077969 
L 283.735681 23.077969 
" clip-path="url(#p2f8ccef5b5)" style="fill: none; stroke-dasharray: 3.7,1.6; stroke-dashoffset: 0; stroke: #000000; stroke-opacity: 0.75"/>
   </g>
   <g id="line2d_2">
    <path d="M 50.14375 165.721576 
L 612.071192 165.721576 
" clip-path="url(#p2f8ccef5b5)" style="fill: none; stroke-dasharray: 3.7,1.6; stroke-dashoffset: 0; stroke: #000000; stroke-opacity: 0.75"/>
   </g>
   <g id="matplotlib.axis_1">
    <g id="xtick_1">
     <g id="line2d_3">
      <path d="M 120.38468 429.077969 
L 120.38468 23.077969 
" clip-path="url(#p2f8ccef5b5)" style="fill: none; stroke-dasharray: 1.665,0.72; stroke-dashoffset: 0; stroke: #b0b0b0; stroke-opacity: 0.25; stroke-width: 0.45"/>
     </g>
     <g id="line2d_4">
      <defs>
       <path id="m9cbee7c891" d="M 0 0 
L 0 3.5 
" style="stroke: #000000; stroke-width: 0.9"/>
      </defs>
      <g>
       <use xlink:href="#m9cbee7c891" x="120.38468" y="429.077969" style="stroke: #000000; stroke-width: 0.9"/>
      </g>
     </g>
     <g id="text_1">
      <text style="font-size: 10px; font-family: 'DejaVu Sans'; text-anchor: middle" x="120.38468" y="443.676406" transform="rotate(-0 120.38468 443.676406)">1.0</text>
     </g>
    </g>
    <g id="xtick_2">
     <g id="line2d_5">
      <path d="M 202.060181 429.077969 
L 202.060181 23.077969 
" clip-path="url(#p2f8ccef5b5)" style="fill: none; stroke-dasharray: 1.665,0.72; stroke-dashoffset: 0; stroke: #b0b0b0; stroke-opacity: 0.25; stroke-width: 0.45"/>
     </g>
     <g id="line2d_6">
      <g>
       <use xlink:href="#m9cbee7c891" x="202.060181" y="429.077969" style="stroke: #000000; stroke-width: 0.9"/>
      </g>
     </g>
     <g id="text_2">
      <text style="font-size: 10px; font-family: 'DejaVu Sans'; text-anchor: middle" x="202.060181" y="443.676406" transform="rotate(-0 202.060181 443.676406)">1.5</text>
     </g>
    </g>
    <g id="xtick_3">
     <g id="line2d_7">
      <path d="M 283.735681 429.077969 
L 283.735681 23.077969 
" clip-path="url(#p2f8ccef5b5)" style="fill: none; stroke-dasharray: 1.665,0.72; stroke-dashoffset: 0; stroke: #b0b0b0; stroke-opacity: 0.25; stroke-width: 0.45"/>
     </g>
     <g id="line2d_8">
      <g>
       <use xlink:href="#m9cbee7c891" x="283.735681" y="429.077969" style="stroke: #000000; stroke-width: 0.9"/>
      </g>
     </g>
     <g id="text_3">
      <text style="font-size: 10px; font-family: 'DejaVu Sans'; text-anchor: middle" x="283.735681" y="443.676406" transform="rotate(-0 283.735681 443.676406)">2.0</text>
     </g>
    </g>
    <g id="xtick_4">
     <g id="line2d_9">
      <path d="M 365.411181 429.077969 
L 365.411181 23.077969 
" clip-path="url(#p2f8ccef5b5)" style="fill: none; stroke-dasharray: 1.665,0.72; stroke-dashoffset: 0; stroke: #b0b0b0; stroke-opacity: 0.25; stroke-width: 0.45"/>
     </g>
     <g id="line2d_10">
      <g>
       <use xlink:href="#m9cbee7c891" x="365.411181" y="429.077969" style="stroke: #000000; stroke-width: 0.9"/>
      </g>
     </g>
     <g id="text_4">
      <text style="font-size: 10px; font-family: 'DejaVu Sans'; text-anchor: middle" x="365.411181" y="443.676406" transform="rotate(-0 365.411181 443.676406)">2.5</text>
     </g>
    </g>
    <g id="xtick_5">
     <g id="line2d_11">
      <path d="M 447.086681 429.077969 
L 447.086681 23.077969 
" clip-path="url(#p2f8ccef5b5)" style="fill: none; stroke-dasharray: 1.665,0.72; stroke-dashoffset: 0; stroke: #b0b0b0; stroke-opacity: 0.25; stroke-width: 0.45"/>
     </g>
     <g id="line2d_12">
      <g>
       <use xlink:href="#m9cbee7c891" x="447.086681" y="429.077969" style="stroke: #000000; stroke-width: 0.9"/>
      </g>
     </g>
     <g id="text_5">
      <text style="font-size: 10px; font-family: 'DejaVu Sans'; text-anchor: middle" x="447.086681" y="443.676406" transform="rotate(-0 447.086681 443.676406)">3.0</text>
     </g>
    </g>
    <g id="xtick_6">
     <g id="line2d_13">
      <path d="M 528.762182 429.077969 
L 528.762182 23.077969 
" clip-path="url(#p2f8ccef5b5)" style="fill: none; stroke-dasharray: 1.665,0.72; stroke-dashoffset: 0; stroke: #b0b0b0; stroke-opacity: 0.25; stroke-width: 0.45"/>
     </g>
     <g id="line2d_14">
      <g>
       <use xlink:href="#m9cbee7c891" x="528.762182" y="429.077969" style="stroke: #000000; stroke-width: 0.9"/>
      </g>
     </g>
     <g id="text_6">
      <text style="font-size: 10px; font-family: 'DejaVu Sans'; text-anchor: middle" x="528.762182" y="443.676406" transform="rotate(-0 528.762182 443.676406)">3.5</text>
     </g>
    </g>
    <g id="xtick_7">
     <g id="line2d_15">
      <path d="M 610.437682 429.077969 
L 610.437682 23.077969 
" clip-path="url(#p2f8ccef5b5)" style="fill: none; stroke-dasharray: 1.665,0.72; stroke-dashoffset: 0; stroke: #b0b0b0; stroke-opacity: 0.25; stroke-width: 0.45"/>
     </g>
     <g id="line2d_16">
      <g>
       <use xlink:href="#m9cbee7c891" x="610.437682" y="429.077969" style="stroke: #000000; stroke-width: 0.9"/>
      </g>
     </g>
     <g id="text_7">
      <text style="font-size: 10px; font-family: 'DejaVu Sans'; text-anchor: middle" x="610.437682" y="443.676406" transform="rotate(-0 610.437682 443.676406)">4.0</text>
     </g>
    </g>
    <g id="text_8">
     <text style="font-size: 10px; font-family: 'DejaVu Sans'; text-anchor: middle" x="331.107471" y="457.354531" transform="rotate(-0 331.107471 457.354531)">Mean nearest-monitor hop</text>
    </g>
   </g>
   <g id="matplotlib.axis_2">
    <g id="ytick_1">
     <g id="line2d_17">
      <path d="M 50.14375 402.977393 
L 612.071192 402.977393 
" clip-path="url(#p2f8ccef5b5)" style="fill: none; stroke-dasharray: 1.665,0.72; stroke-dashoffset: 0; stroke: #b0b0b0; stroke-opacity: 0.25; stroke-width: 0.45"/>
     </g>
     <g id="line2d_18">
      <defs>
       <path id="m5bc4331498" d="M 0 0 
L -3.5 0 
" style="stroke: #000000; stroke-width: 0.9"/>
      </defs>
      <g>
       <use xlink:href="#m5bc4331498" x="50.14375" y="402.977393" style="stroke: #000000; stroke-width: 0.9"/>
      </g>
     </g>
     <g id="text_9">
      <text style="font-size: 10px; font-family: 'DejaVu Sans'; text-anchor: end" x="43.14375" y="406.776612" transform="rotate(-0 43.14375 406.776612)">0.80</text>
     </g>
    </g>
    <g id="ytick_2">
     <g id="line2d_19">
      <path d="M 50.14375 348.648355 
L 612.071192 348.648355 
" clip-path="url(#p2f8ccef5b5)" style="fill: none; stroke-dasharray: 1.665,0.72; stroke-dashoffset: 0; stroke: #b0b0b0; stroke-opacity: 0.25; stroke-width: 0.45"/>
     </g>
     <g id="line2d_20">
      <g>
       <use xlink:href="#m5bc4331498" x="50.14375" y="348.648355" style="stroke: #000000; stroke-width: 0.9"/>
      </g>
     </g>
     <g id="text_10">
      <text style="font-size: 10px; font-family: 'DejaVu Sans'; text-anchor: end" x="43.14375" y="352.447573" transform="rotate(-0 43.14375 352.447573)">0.82</text>
     </g>
    </g>
    <g id="ytick_3">
     <g id="line2d_21">
      <path d="M 50.14375 294.319316 
L 612.071192 294.319316 
" clip-path="url(#p2f8ccef5b5)" style="fill: none; stroke-dasharray: 1.665,0.72; stroke-dashoffset: 0; stroke: #b0b0b0; stroke-opacity: 0.25; stroke-width: 0.45"/>
     </g>
     <g id="line2d_22">
      <g>
       <use xlink:href="#m5bc4331498" x="50.14375" y="294.319316" style="stroke: #000000; stroke-width: 0.9"/>
      </g>
     </g>
     <g id="text_11">
      <text style="font-size: 10px; font-family: 'DejaVu Sans'; text-anchor: end" x="43.14375" y="298.118535" transform="rotate(-0 43.14375 298.118535)">0.84</text>
     </g>
    </g>
    <g id="ytick_4">
     <g id="line2d_23">
      <path d="M 50.14375 239.990277 
L 612.071192 239.990277 
" clip-path="url(#p2f8ccef5b5)" style="fill: none; stroke-dasharray: 1.665,0.72; stroke-dashoffset: 0; stroke: #b0b0b0; stroke-opacity: 0.25; stroke-width: 0.45"/>
     </g>
     <g id="line2d_24">
      <g>
       <use xlink:href="#m5bc4331498" x="50.14375" y="239.990277" style="stroke: #000000; stroke-width: 0.9"/>
      </g>
     </g>
     <g id="text_12">
      <text style="font-size: 10px; font-family: 'DejaVu Sans'; text-anchor: end" x="43.14375" y="243.789496" transform="rotate(-0 43.14375 243.789496)">0.86</text>
     </g>
    </g>
    <g id="ytick_5">
     <g id="line2d_25">
      <path d="M 50.14375 185.661239 
L 612.071192 185.661239 
" clip-path="url(#p2f8ccef5b5)" style="fill: none; stroke-dasharray: 1.665,0.72; stroke-dashoffset: 0; stroke: #b0b0b0; stroke-opacity: 0.25; stroke-width: 0.45"/>
     </g>
     <g id="line2d_26">
      <g>
       <use xlink:href="#m5bc4331498" x="50.14375" y="185.661239" style="stroke: #000000; stroke-width: 0.9"/>
      </g>
     </g>
     <g id="text_13">
      <text style="font-size: 10px; font-family: 'DejaVu Sans'; text-anchor: end" x="43.14375" y="189.460457" transform="rotate(-0 43.14375 189.460457)">0.88</text>
     </g>
    </g>
    <g id="ytick_6">
     <g id="line2d_27">
      <path d="M 50.14375 131.3322 
L 612.071192 131.3322 
" clip-path="url(#p2f8ccef5b5)" style="fill: none; stroke-dasharray: 1.665,0.72; stroke-dashoffset: 0; stroke: #b0b0b0; stroke-opacity: 0.25; stroke-width: 0.45"/>
     </g>
     <g id="line2d_28">
      <g>
       <use xlink:href="#m5bc4331498" x="50.14375" y="131.3322" style="stroke: #000000; stroke-width: 0.9"/>
      </g>
     </g>
     <g id="text_14">
      <text style="font-size: 10px; font-family: 'DejaVu Sans'; text-anchor: end" x="43.14375" y="135.131419" transform="rotate(-0 43.14375 135.131419)">0.90</text>
     </g>
    </g>
    <g id="ytick_7">
     <g id="line2d_29">
      <path d="M 50.14375 77.003161 
L 612.071192 77.003161 
" clip-path="url(#p2f8ccef5b5)" style="fill: none; stroke-dasharray: 1.665,0.72; stroke-dashoffset: 0; stroke: #b0b0b0; stroke-opacity: 0.25; stroke-width: 0.45"/>
     </g>
     <g id="line2d_30">
      <g>
       <use xlink:href="#m5bc4331498" x="50.14375" y="77.003161" style="stroke: #000000; stroke-width: 0.9"/>
      </g>
     </g>
     <g id="text_15">
      <text style="font-size: 10px; font-family: 'DejaVu Sans'; text-anchor: end" x="43.14375" y="80.80238" transform="rotate(-0 43.14375 80.80238)">0.92</text>
     </g>
    </g>
    <g id="text_16">
     <text style="font-size: 10px; font-family: 'DejaVu Sans'; text-anchor: middle" x="14.798438" y="226.077969" transform="rotate(-90 14.798438 226.077969)">MRR mean</text>
    </g>
   </g>
   <g id="patch_7">
    <path d="M 50.14375 429.077969 
L 50.14375 23.077969 
" style="fill: none; stroke: #000000; stroke-linejoin: miter; stroke-linecap: square"/>
   </g>
   <g id="patch_8">
    <path d="M 50.14375 429.077969 
L 612.071192 429.077969 
" style="fill: none; stroke: #000000; stroke-linejoin: miter; stroke-linecap: square"/>
   </g>
   <g id="text_17">
    <text style="font-size: 9px; font-family: 'DejaVu Sans'; fill: #404040" transform="translate(78.240122 54.276562)">Near coverage</text>
    <text style="font-size: 9px; font-family: 'DejaVu Sans'; fill: #404040" transform="translate(78.240122 64.354594)">High MRR</text>
   </g>
   <g id="text_18">
    <text style="font-size: 9px; font-family: 'DejaVu Sans'; fill: #404040" transform="translate(311.832053 54.276562)">Far coverage</text>
    <text style="font-size: 9px; font-family: 'DejaVu Sans'; fill: #404040" transform="translate(311.832053 64.354594)">High MRR</text>
   </g>
   <g id="text_19">
    <text style="font-size: 9px; font-family: 'DejaVu Sans'; fill: #595959" transform="translate(78.240122 196.92017)">Near coverage</text>
    <text style="font-size: 9px; font-family: 'DejaVu Sans'; fill: #595959" transform="translate(78.240122 206.998201)">Lower MRR</text>
   </g>
   <g id="text_20">
    <text style="font-size: 9px; font-family: 'DejaVu Sans'; fill: #595959" transform="translate(311.832053 196.92017)">Far coverage</text>
    <text style="font-size: 9px; font-family: 'DejaVu Sans'; fill: #595959" transform="translate(311.832053 206.998201)">Lower MRR</text>
   </g>
   <g id="text_21">
    <text style="font-size: 8px; font-family: 'DejaVu Sans'; fill: #4c4c4c" transform="translate(244.919431 408.083469)">near / far boundary</text>
    <text style="font-size: 8px; font-family: 'DejaVu Sans'; fill: #4c4c4c" transform="translate(254.430681 417.041719)">mean_hop = 2</text>
   </g>
   <g id="text_22">
    <text style="font-size: 8px; font-family: 'DejaVu Sans'; text-anchor: end; fill: #4c4c4c" x="600.832643" y="155.90847" transform="rotate(-0 600.832643 155.90847)">median MRR = 0.887</text>
   </g>
   <g id="text_23">
    <text style="font-weight: 700; font-size: 13px; font-family: 'DejaVu Sans'; text-anchor: middle" x="331.107471" y="17.077969" transform="rotate(-0 331.107471 17.077969)">Coverage–performance quadrant under N=25</text>
   </g>
   <g id="PathCollection_1">
    <defs>
     <path id="m82632c5234" d="M 0 4.609772 
C 1.222526 4.609772 2.395145 4.124058 3.259601 3.259601 
C 4.124058 2.395145 4.609772 1.222526 4.609772 0 
C 4.609772 -1.222526 4.124058 -2.395145 3.259601 -3.259601 
C 2.395145 -4.124058 1.222526 -4.609772 0 -4.609772 
C -1.222526 -4.609772 -2.395145 -4.124058 -3.259601 -3.259601 
C -4.124058 -2.395145 -4.609772 -1.222526 -4.609772 0 
C -4.609772 1.222526 -4.124058 2.395145 -3.259601 3.259601 
C -2.395145 4.124058 -1.222526 4.609772 0 4.609772 
z
" style="stroke: #000000; stroke-width: 0.7"/>
    </defs>
    <g clip-path="url(#p2f8ccef5b5)">
     <use xlink:href="#m82632c5234" x="525.495162" y="334.002151" style="fill: #4e79a7; stroke: #000000; stroke-width: 0.7"/>
    </g>
   </g>
   <g id="PathCollection_2">
    <defs>
     <path id="m199f0fe07f" d="M 0 4.609772 
C 1.222526 4.609772 2.395145 4.124058 3.259601 3.259601 
C 4.124058 2.395145 4.609772 1.222526 4.609772 0 
C 4.609772 -1.222526 4.124058 -2.395145 3.259601 -3.259601 
C 2.395145 -4.124058 1.222526 -4.609772 0 -4.609772 
C -1.222526 -4.609772 -2.395145 -4.124058 -3.259601 -3.259601 
C -4.124058 -2.395145 -4.609772 -1.222526 -4.609772 0 
C -4.609772 1.222526 -4.124058 2.395145 -3.259601 3.259601 
C -2.395145 4.124058 -1.222526 4.609772 0 4.609772 
z
" style="stroke: #000000; stroke-width: 0.7"/>
    </defs>
    <g clip-path="url(#p2f8ccef5b5)">
     <use xlink:href="#m199f0fe07f" x="538.563242" y="217.955325" style="fill: #59a14f; stroke: #000000; stroke-width: 0.7"/>
    </g>
   </g>
   <g id="PathCollection_3">
    <defs>
     <path id="m5936d05c70" d="M 0 4.609772 
C 1.222526 4.609772 2.395145 4.124058 3.259601 3.259601 
C 4.124058 2.395145 4.609772 1.222526 4.609772 0 
C 4.609772 -1.222526 4.124058 -2.395145 3.259601 -3.259601 
C 2.395145 -4.124058 1.222526 -4.609772 0 -4.609772 
C -1.222526 -4.609772 -2.395145 -4.124058 -3.259601 -3.259601 
C -4.124058 -2.395145 -4.609772 -1.222526 -4.609772 0 
C -4.609772 1.222526 -4.124058 2.395145 -3.259601 3.259601 
C -2.395145 4.124058 -1.222526 4.609772 0 4.609772 
z
" style="stroke: #000000; stroke-width: 0.7"/>
    </defs>
    <g clip-path="url(#p2f8ccef5b5)">
     <use xlink:href="#m5936d05c70" x="110.58362" y="190.15425" style="fill: #f28e2b; stroke: #000000; stroke-width: 0.7"/>
    </g>
   </g>
   <g id="PathCollection_4">
    <defs>
     <path id="m8310c00d9d" d="M 0 4.609772 
C 1.222526 4.609772 2.395145 4.124058 3.259601 3.259601 
C 4.124058 2.395145 4.609772 1.222526 4.609772 0 
C 4.609772 -1.222526 4.124058 -2.395145 3.259601 -3.259601 
C 2.395145 -4.124058 1.222526 -4.609772 0 -4.609772 
C -1.222526 -4.609772 -2.395145 -4.124058 -3.259601 -3.259601 
C -4.124058 -2.395145 -4.609772 -1.222526 -4.609772 0 
C -4.609772 1.222526 -4.124058 2.395145 -3.259601 3.259601 
C -2.395145 4.124058 -1.222526 4.609772 0 4.609772 
z
" style="stroke: #000000; stroke-width: 0.7"/>
    </defs>
    <g clip-path="url(#p2f8ccef5b5)">
     <use xlink:href="#m8310c00d9d" x="107.3166" y="118.153786" style="fill: #e15759; stroke: #000000; stroke-width: 0.7"/>
    </g>
   </g>
   <g id="PathCollection_5">
    <defs>
     <path id="m9c6a0b8dab" d="M 0 4.609772 
C 1.222526 4.609772 2.395145 4.124058 3.259601 3.259601 
C 4.124058 2.395145 4.609772 1.222526 4.609772 0 
C 4.609772 -1.222526 4.124058 -2.395145 3.259601 -3.259601 
C 2.395145 -4.124058 1.222526 -4.609772 0 -4.609772 
C -1.222526 -4.609772 -2.395145 -4.124058 -3.259601 -3.259601 
C -4.124058 -2.395145 -4.609772 -1.222526 -4.609772 0 
C -4.609772 1.222526 -4.124058 2.395145 -3.259601 3.259601 
C -2.395145 4.124058 -1.222526 4.609772 0 4.609772 
z
" style="stroke: #000000; stroke-width: 0.7"/>
    </defs>
    <g clip-path="url(#p2f8ccef5b5)">
     <use xlink:href="#m9c6a0b8dab" x="192.25912" y="141.288902" style="fill: #b07aa1; stroke: #000000; stroke-width: 0.7"/>
    </g>
   </g>
   <g id="PathCollection_6">
    <defs>
     <path id="m9e5d3dc0ec" d="M 0 4.609772 
C 1.222526 4.609772 2.395145 4.124058 3.259601 3.259601 
C 4.124058 2.395145 4.609772 1.222526 4.609772 0 
C 4.609772 -1.222526 4.124058 -2.395145 3.259601 -3.259601 
C 2.395145 -4.124058 1.222526 -4.609772 0 -4.609772 
C -1.222526 -4.609772 -2.395145 -4.124058 -3.259601 -3.259601 
C -4.124058 -2.395145 -4.609772 -1.222526 -4.609772 0 
C -4.609772 1.222526 -4.124058 2.395145 -3.259601 3.259601 
C -2.395145 4.124058 -1.222526 4.609772 0 4.609772 
z
" style="stroke: #000000; stroke-width: 0.7"/>
    </defs>
    <g clip-path="url(#p2f8ccef5b5)">
     <use xlink:href="#m9e5d3dc0ec" x="375.212241" y="140.080081" style="fill: #76b7b2; stroke: #000000; stroke-width: 0.7"/>
    </g>
   </g>
   <g id="text_24">
    <text style="font-size: 8.5px; font-family: 'DejaVu Sans'; text-anchor: start" x="533.662712" y="352.646332" transform="rotate(-0 533.662712 352.646332)">Degree</text>
   </g>
   <g id="text_25">
    <text style="font-size: 8.5px; font-family: 'DejaVu Sans'; text-anchor: start" x="546.730792" y="209.434986" transform="rotate(-0 546.730792 209.434986)">Betweenness</text>
   </g>
   <g id="text_26">
    <text style="font-size: 8.5px; font-family: 'DejaVu Sans'; text-anchor: start" x="118.75117" y="208.798431" transform="rotate(-0 118.75117 208.798431)">Cand-Obs</text>
   </g>
   <g id="text_27">
    <text style="font-size: 8.5px; font-family: 'DejaVu Sans'; text-anchor: start" x="115.48415" y="104.200543" transform="rotate(-0 115.48415 104.200543)">Two-stage</text>
   </g>
   <g id="text_28">
    <text style="font-size: 8.5px; font-family: 'DejaVu Sans'; text-anchor: start" x="200.42667" y="135.485015" transform="rotate(-0 200.42667 135.485015)">Node-Feedback</text>
   </g>
   <g id="text_29">
    <text style="font-size: 8.5px; font-family: 'DejaVu Sans'; text-anchor: start" x="383.379791" y="131.559742" transform="rotate(-0 383.379791 131.559742)">Embedding-Guided</text>
   </g>
  </g>
 </g>
 <defs>
  <clipPath id="p2f8ccef5b5">
   <rect x="50.14375" y="23.077969" width="561.927442" height="406"/>
  </clipPath>
 </defs>
</svg>
